<svg width="26" height="26" viewBox="0 0 26 26" fill="none" xmlns="http://www.w3.org/2000/svg">
<g clip-path="url(#clip0_115_58)">
<path d="M20.6426 16.522H6.2832C6.11133 16.522 5.9707 16.6626 5.9707 16.8345L5.9668 18.7095C5.9668 18.8814 6.10742 19.022 6.2793 19.022H20.6426C20.8145 19.022 20.9551 18.8814 20.9551 18.7095V16.8345C20.9551 16.6626 20.8145 16.522 20.6426 16.522ZM20.6426 20.272H6.27148C6.09961 20.272 5.95898 20.4126 5.95898 20.5845L5.95508 22.4595C5.95508 22.6314 6.0957 22.772 6.26758 22.772H20.6426C20.8145 22.772 20.9551 22.6314 20.9551 22.4595V20.5845C20.9551 20.4126 20.8145 20.272 20.6426 20.272ZM20.6426 12.772H6.29102C6.11914 12.772 5.97852 12.9126 5.97852 13.0845L5.97461 14.9595C5.97461 15.1314 6.11523 15.272 6.28711 15.272H20.6426C20.8145 15.272 20.9551 15.1314 20.9551 14.9595V13.0845C20.9551 12.9126 20.8145 12.772 20.6426 12.772ZM24.8027 7.34229L14.1738 2.91651C13.9454 2.82173 13.7005 2.77295 13.4531 2.77295C13.2058 2.77295 12.9609 2.82173 12.7324 2.91651L2.10742 7.34229C1.41211 7.63526 0.955078 8.31494 0.955078 9.07276V22.4595C0.955078 22.6314 1.0957 22.772 1.26758 22.772H4.39258C4.56445 22.772 4.70508 22.6314 4.70508 22.4595V12.772C4.70508 12.0845 5.27539 11.522 5.97852 11.522H20.9316C21.6348 11.522 22.2051 12.0845 22.2051 12.772V22.4595C22.2051 22.6314 22.3457 22.772 22.5176 22.772H25.6426C25.8145 22.772 25.9551 22.6314 25.9551 22.4595V9.07276C25.9551 8.31494 25.498 7.63526 24.8027 7.34229V7.34229Z" fill="#BEBEBE"/>
</g>
<defs>
<clipPath id="clip0_115_58">
<rect width="25" height="25" fill="white" transform="translate(0.955078 0.271973)"/>
</clipPath>
</defs>
</svg>
